<svg xmlns="http://www.w3.org/2000/svg" viewBox="0 0 24 24">
  <defs>
    <linearGradient id="bg" x1="0%" y1="0%" x2="100%" y2="100%">
      <stop offset="0%" stop-color="#3b82f6" />
      <stop offset="100%" stop-color="#1e3a8a" />
    </linearGradient>
  </defs>
  <rect width="24" height="24" rx="6" fill="url(#bg)" />
  
  <path d="M18 11V6a2 2 0 0 0-2-2a2 2 0 0 0-2 2" fill="none" stroke="#e2e8f0" stroke-width="1.5" stroke-linecap="round" stroke-linejoin="round"/>
  <path d="M14 10V4a2 2 0 0 0-2-2a2 2 0 0 0-2 2" fill="none" stroke="#e2e8f0" stroke-width="1.5" stroke-linecap="round" stroke-linejoin="round"/>
  <path d="M10 10.5V6a2 2 0 0 0-2-2a2 2 0 0 0-2 2" fill="none" stroke="#e2e8f0" stroke-width="1.5" stroke-linecap="round" stroke-linejoin="round"/>
  <path d="M15 13h1.59a2 2 0 0 1 1.63.85l3.52 4.93a1 1 0 0 1-.79 1.58H10a5 5 0 0 1-5-5V10.5a2 2 0 0 1 2-2a2 2 0 0 1 2 2" fill="none" stroke="#e2e8f0" stroke-width="1.5" stroke-linecap="round" stroke-linejoin="round"/>
  
  <!-- Math Plus -->
  <path d="M6 14h4" stroke="#fbbf24" stroke-width="2.5" stroke-linecap="round"/>
  <path d="M8 12v4" stroke="#fbbf24" stroke-width="2.5" stroke-linecap="round"/>
</svg>